HIERARCHY
ROOT Hips
{
	OFFSET 0.000000 0.000000 0.000000 
	CHANNELS 6 Xposition Yposition Zposition Zrotation Yrotation Xrotation
	JOINT LeftUpLeg
	{
		OFFSET 1.363060 -1.794630 0.839290 
		CHANNELS 3 Zrotation Yrotation Xrotation
		JOINT LeftLeg
		{
			OFFSET 2.448110 -6.726130 0.000000 
			CHANNELS 3 Zrotation Yrotation Xrotation
			JOINT LeftFoot
			{
				OFFSET 2.562200 -7.039590 0.000000 
				CHANNELS 3 Zrotation Yrotation Xrotation
				JOINT LeftToeBase
				{
					OFFSET 0.157640 -0.433110 2.322550 
					CHANNELS 3 Zrotation Yrotation Xrotation
					End Site
					{
						OFFSET 0.000000 0.000000 0.000000 
					}
				}
			}
		}
	}
	JOINT RightUpLeg
	{
		OFFSET -1.305520 -1.794630 0.839290 
		CHANNELS 3 Zrotation Yrotation Xrotation
		JOINT RightLeg
		{
			OFFSET -2.542530 -6.985550 0.000000 
			CHANNELS 3 Zrotation Yrotation Xrotation
			JOINT RightFoot
			{
				OFFSET -2.568260 -7.056230 0.000000 
				CHANNELS 3 Zrotation Yrotation Xrotation
				JOINT RightToeBase
				{
					OFFSET -0.164730 -0.452590 2.363150 
					CHANNELS 3 Zrotation Yrotation Xrotation
					End Site
					{
						OFFSET 0.000000 0.000000 0.000000 
					}
				}
			}
		}
	}
	JOINT Spine
	{
		OFFSET 0.028270 2.035590 -0.193380 
		CHANNELS 3 Zrotation Yrotation Xrotation
		JOINT Spine1
		{
			OFFSET 0.056720 2.048850 -0.042750 
			CHANNELS 3 Zrotation Yrotation Xrotation
			JOINT Neck1
			{
				OFFSET -0.054170 1.746240 0.172020 
				CHANNELS 3 Zrotation Yrotation Xrotation
				JOINT Head
				{
					OFFSET 0.104070 1.761360 -0.123970 
					CHANNELS 3 Zrotation Yrotation Xrotation
					End Site
					{
						OFFSET 0.000000 0.000000 0.000000 
					}
				}
			}
			JOINT LeftArm
			{
				OFFSET 3.362410 1.200890 -0.311210 
				CHANNELS 3 Zrotation Yrotation Xrotation
				JOINT LeftForeArm
				{
					OFFSET 4.983000 -0.000000 -0.000000 
					CHANNELS 3 Zrotation Yrotation Xrotation
					JOINT LeftHand
					{
						OFFSET 3.483560 -0.000000 -0.000000 
						CHANNELS 3 Zrotation Yrotation Xrotation
						JOINT LeftHandIndex1
						{
							OFFSET 0.715260 -0.000000 -0.000000 
							CHANNELS 3 Zrotation Yrotation Xrotation
							End Site
							{
								OFFSET 0.000000 0.000000 0.000000 
							}
						}
					}
				}
			}
			JOINT RightArm
			{
				OFFSET -3.136600 1.374050 -0.404650 
				CHANNELS 3 Zrotation Yrotation Xrotation
				JOINT RightForeArm
				{
					OFFSET -5.241900 -0.000000 -0.000000 
					CHANNELS 3 Zrotation Yrotation Xrotation
					JOINT RightHand
					{
						OFFSET -3.444170 -0.000000 -0.000000 
						CHANNELS 3 Zrotation Yrotation Xrotation
						JOINT RightHandIndex1
						{
							OFFSET -0.622530 -0.000000 -0.000000 
							CHANNELS 3 Zrotation Yrotation Xrotation
							End Site
							{
								OFFSET 0.000000 0.000000 0.000000 
							}
						}
					}
				}
			}
		}
	}
}
MOTION
Frames: 8
Frame Time: 0.041667
-19.139046 11.853376 52.507173 126.841822 -75.823242 -154.332094 -15.699750 20.190427 69.570403 37.743108 -14.818591 -169.954834 -99.165760 -71.739109 -163.374894 1.414300 -7.521400 -21.269500 -57.190722 44.441216 -43.714574 -18.503324 39.911072 -148.446472 -65.602396 -80.819063 125.239973 -0.366800 -3.890200 10.767800 -172.376310 50.292105 121.141799 29.541979 -46.983517 -88.886622 -47.691684 -43.635621 -58.932293 -2.429500 -0.429400 16.881200 165.977372 62.100002 10.211518 -18.466016 15.370906 149.219494 60.938128 49.644107 -68.556620 -7.125000 0.000000 0.000000 67.577240 81.345473 -83.804550 49.674867 -41.776573 -19.355376 -58.635255 -2.942307 28.463395 7.125000 0.000000 0.000000 
-19.134496 11.854813 52.543100 149.691236 80.502575 -141.973034 -15.839611 -68.316523 -136.520359 -134.714208 -35.680287 109.335040 -11.864006 7.785234 -158.439993 1.400400 -7.486000 -21.163500 79.461093 -33.112823 -10.325626 -98.509531 33.042836 65.618020 100.914969 81.750727 155.036006 -0.435700 -4.235500 11.740200 -177.417216 -20.700063 -40.316030 146.639711 -88.956059 -167.767499 -33.757679 -55.823193 71.186808 -2.412200 -0.458300 16.897300 -113.351538 -33.674069 -30.306105 -142.975715 60.972437 -41.412550 11.073510 80.549497 -18.117600 -7.125000 0.000000 0.000000 -94.827060 51.317177 9.212132 99.089816 -77.035068 -166.343415 -8.834027 0.165216 50.013507 7.125000 0.000000 0.000000 
-19.130903 11.856489 52.577590 -18.805347 -88.896881 29.572216 45.292680 -89.154742 46.625495 -24.838094 -27.761846 -59.172444 -124.480489 42.620383 -120.568334 1.383200 -7.441800 -21.031000 -25.521054 -8.037406 -64.823165 149.092433 30.405227 99.429401 7.386162 -72.149563 13.687412 -0.511600 -4.584900 12.728300 85.966101 -75.474800 -153.714598 74.497330 11.161599 -33.153225 43.331802 -32.176706 21.349670 -2.379600 -0.486800 16.927400 -148.324528 -65.558662 -32.172253 -151.831812 -35.276443 172.467243 21.385879 34.083116 -11.013792 -7.125000 0.000000 0.000000 -46.750089 13.645616 152.832495 165.109670 -20.238532 169.488767 -45.072944 -20.756613 29.280159 7.125000 0.000000 0.000000 
-19.128747 11.857926 52.610642 -102.532117 -45.225934 59.498516 -67.878755 57.792271 -134.845631 40.455220 27.294856 103.066631 -53.762498 -70.875245 62.447526 1.364200 -7.392600 -20.883700 30.552734 -56.436224 -17.822960 -116.224566 71.469113 115.217475 -30.596634 -24.161046 -177.453688 -0.593800 -4.933200 13.718100 -25.051793 7.229512 -16.575141 -64.575795 -72.807872 127.138789 -10.271039 -27.339383 13.453124 -2.337300 -0.517500 16.967200 122.874495 -9.630246 -9.936533 132.494884 5.761683 45.025799 -12.033241 89.338696 42.173181 -7.125000 0.000000 0.000000 -36.282035 27.853819 -81.392150 150.273991 -61.727733 -178.623325 -18.221749 23.096063 37.897411 7.125000 0.000000 0.000000 
-19.128029 11.858885 52.643215 -112.336093 47.041815 -166.954464 83.840619 -29.112604 -107.467226 -162.832025 89.621642 75.780487 -113.167528 37.046738 -84.426160 1.343200 -7.337800 -20.720100 175.393920 -67.311523 127.911328 -85.975010 73.023962 -141.671566 -30.495042 -64.107548 -72.143620 -0.680300 -5.273600 14.690600 150.005545 7.057795 127.330947 32.144362 -51.563867 146.369203 -165.967788 53.797733 88.605156 -2.286600 -0.550000 17.014900 -54.102537 -36.196661 1.638075 29.487945 -58.198218 -7.525618 2.714964 65.345369 10.940651 -7.125000 0.000000 0.000000 -88.432600 -13.346528 -93.418657 89.435653 45.711684 -11.219155 -17.550491 4.789161 22.513717 7.125000 0.000000 0.000000 
-19.128747 11.859603 52.675549 77.445033 -71.617894 -106.085519 98.382146 -46.138201 -29.010813 -77.069453 67.608137 111.529561 -149.708463 7.804599 54.485999 1.320600 -7.278200 -20.542300 124.175869 -43.411090 -170.282328 -23.459015 -12.632686 110.496414 27.054310 40.799731 97.137855 -0.772400 -5.611600 15.661400 108.901145 73.742554 171.347955 -120.286968 83.998786 122.800142 -114.312731 -13.435100 -36.992444 -2.230800 -0.586600 17.064000 41.733887 27.226283 -149.957344 48.168709 19.481551 167.724802 24.480114 71.574983 -3.411645 -7.125000 0.000000 0.000000 -23.909470 -33.953067 138.201005 -40.991144 -11.030019 165.890544 -45.036885 29.398775 29.375017 7.125000 0.000000 0.000000 
-19.130903 11.859843 52.707883 114.392652 -16.936581 -85.373287 -158.501775 -76.002904 155.810863 19.168147 -11.274892 -39.164616 -30.931636 -43.296153 135.414916 1.298600 -7.219700 -20.367900 -33.713299 -81.056177 -143.109607 -47.825205 1.186544 116.153255 150.627429 -63.342772 -154.297121 -0.867900 -5.940200 16.611000 77.837158 -33.875519 -136.267962 -139.406915 -78.940696 35.073533 -30.585558 -78.071710 -28.782739 -2.172100 -0.627000 17.109700 154.512159 -49.131457 -175.820142 -163.448928 -28.073415 -155.914386 34.453292 89.022995 34.563983 -7.125000 0.000000 0.000000 -35.943469 -63.158883 -101.213888 35.313022 -17.528330 179.587687 -41.608174 49.209242 26.531757 7.125000 0.000000 0.000000 
-19.133777 11.859843 52.739978 105.725691 75.787991 -14.496041 38.229304 45.746756 -13.324873 -75.103020 -15.275297 -4.158397 84.740318 -24.408980 -141.405874 1.276300 -7.159800 -20.189600 59.437156 62.775642 164.733704 63.493695 -9.739628 126.455468 85.511646 -47.951534 -149.521121 -0.967900 -6.263700 17.551400 117.928829 -68.946700 -74.462198 -81.333059 -41.980218 127.579456 -1.169768 -58.412848 -8.638306 -2.119800 -0.674700 17.149800 -113.345537 80.598639 -37.029103 13.244099 12.240362 -173.022642 81.566407 29.877062 -42.409037 -7.125000 0.000000 0.000000 -106.253298 65.532973 18.835558 -6.609374 22.610044 -168.699695 -36.360673 63.361073 42.586194 7.125000 0.000000 0.000000 
